<?xml version="1.0" standalone="no"?>
<svg xmlns:xlink="http://www.w3.org/1999/xlink" id="wave" style="transform:rotate(0deg); transition: 0.3s" viewBox="0 0 1440 490" version="1.1" xmlns="http://www.w3.org/2000/svg"><defs><linearGradient id="sw-gradient-0" x1="0" x2="0" y1="1" y2="0"><stop stop-color="rgba(34.436, 14.654, 0, 1)" offset="0%"/><stop stop-color="rgba(255, 106.568, 11, 1)" offset="100%"/></linearGradient></defs><path style="transform:translate(0, 0px); opacity:1" fill="url(#sw-gradient-0)" d="M0,294L120,196L240,196L360,0L480,343L600,245L720,147L840,245L960,245L1080,245L1200,49L1320,0L1440,245L1560,245L1680,98L1800,0L1920,49L2040,245L2160,0L2280,441L2400,98L2520,392L2640,0L2760,0L2880,196L2880,490L2760,490L2640,490L2520,490L2400,490L2280,490L2160,490L2040,490L1920,490L1800,490L1680,490L1560,490L1440,490L1320,490L1200,490L1080,490L960,490L840,490L720,490L600,490L480,490L360,490L240,490L120,490L0,490Z"/></svg>